<?xml version="1.0" encoding="UTF-8"?>
<svg xmlns="http://www.w3.org/2000/svg" xmlns:xlink="http://www.w3.org/1999/xlink" width="168px" height="56px" viewBox="0 0 168 56" version="1.1">
<g id="surface1">
<path style=" stroke:none;fill-rule:nonzero;fill:rgb(65.098039%,65.098039%,65.098039%);fill-opacity:1;" d="M 154.1875 0 L 13.347656 0 C 12.835938 0 12.328125 0 11.816406 0.00390625 C 11.386719 0.00390625 10.960938 0.015625 10.53125 0.0195312 C 9.589844 0.03125 8.652344 0.113281 7.722656 0.269531 C 6.796875 0.425781 5.902344 0.722656 5.0625 1.144531 C 4.226562 1.574219 3.460938 2.132812 2.796875 2.796875 C 2.128906 3.457031 1.570312 4.226562 1.148438 5.066406 C 0.722656 5.902344 0.425781 6.800781 0.273438 7.730469 C 0.117188 8.65625 0.03125 9.59375 0.0195312 10.53125 C 0.0078125 10.960938 0.0078125 11.394531 0 11.820312 L 0 44.183594 C 0.0078125 44.617188 0.0078125 45.039062 0.0195312 45.472656 C 0.03125 46.410156 0.117188 47.347656 0.273438 48.273438 C 0.425781 49.203125 0.722656 50.101562 1.148438 50.941406 C 1.570312 51.777344 2.128906 52.542969 2.796875 53.203125 C 3.457031 53.871094 4.222656 54.425781 5.0625 54.851562 C 5.902344 55.277344 6.796875 55.574219 7.722656 55.734375 C 8.652344 55.886719 9.589844 55.96875 10.53125 55.980469 C 10.960938 55.992188 11.386719 55.996094 11.816406 55.996094 C 12.328125 56 12.835938 56 13.347656 56 L 154.1875 56 C 154.691406 56 155.203125 56 155.707031 55.996094 C 156.132812 55.996094 156.570312 55.992188 156.996094 55.980469 C 157.933594 55.96875 158.871094 55.886719 159.796875 55.734375 C 160.726562 55.574219 161.625 55.277344 162.46875 54.851562 C 163.304688 54.425781 164.070312 53.867188 164.734375 53.203125 C 165.398438 52.539062 165.957031 51.777344 166.386719 50.941406 C 166.808594 50.101562 167.101562 49.203125 167.253906 48.273438 C 167.410156 47.347656 167.496094 46.410156 167.511719 45.472656 C 167.519531 45.039062 167.519531 44.617188 167.519531 44.183594 C 167.53125 43.671875 167.53125 43.167969 167.53125 42.652344 L 167.53125 13.351562 C 167.53125 12.835938 167.53125 12.328125 167.519531 11.820312 C 167.519531 11.394531 167.519531 10.960938 167.511719 10.53125 C 167.496094 9.59375 167.410156 8.65625 167.253906 7.730469 C 167.101562 6.804688 166.808594 5.90625 166.386719 5.066406 C 165.523438 3.382812 164.152344 2.011719 162.46875 1.144531 C 161.625 0.722656 160.726562 0.425781 159.796875 0.269531 C 158.871094 0.113281 157.933594 0.03125 156.996094 0.0195312 C 156.570312 0.0117188 156.132812 0.00390625 155.707031 0.00390625 C 155.203125 0 154.691406 0 154.1875 0 Z M 154.1875 0 "/>
<path style=" stroke:none;fill-rule:nonzero;fill:rgb(0%,0%,0%);fill-opacity:1;" d="M 11.824219 54.773438 C 11.394531 54.773438 10.980469 54.769531 10.558594 54.761719 C 9.679688 54.75 8.804688 54.671875 7.941406 54.53125 C 7.132812 54.394531 6.351562 54.132812 5.621094 53.765625 C 4.898438 53.398438 4.234375 52.917969 3.664062 52.339844 C 3.085938 51.773438 2.601562 51.113281 2.234375 50.386719 C 1.867188 49.65625 1.609375 48.875 1.476562 48.066406 C 1.332031 47.199219 1.253906 46.320312 1.242188 45.441406 C 1.234375 45.144531 1.222656 44.164062 1.222656 44.164062 L 1.222656 11.820312 C 1.222656 11.820312 1.234375 10.855469 1.242188 10.570312 C 1.253906 9.691406 1.332031 8.816406 1.472656 7.949219 C 1.609375 7.140625 1.863281 6.355469 2.234375 5.621094 C 2.601562 4.898438 3.082031 4.234375 3.65625 3.664062 C 4.230469 3.085938 4.894531 2.605469 5.621094 2.234375 C 6.347656 1.863281 7.128906 1.609375 7.933594 1.472656 C 8.804688 1.328125 9.679688 1.253906 10.558594 1.242188 L 11.824219 1.226562 L 155.699219 1.226562 L 156.976562 1.242188 C 157.847656 1.253906 158.71875 1.328125 159.578125 1.46875 C 160.394531 1.609375 161.179688 1.867188 161.917969 2.238281 C 163.371094 2.984375 164.554688 4.171875 165.300781 5.625 C 165.664062 6.351562 165.917969 7.132812 166.050781 7.933594 C 166.195312 8.808594 166.277344 9.691406 166.292969 10.574219 C 166.296875 10.972656 166.296875 11.398438 166.296875 11.820312 C 166.308594 12.347656 166.308594 12.847656 166.308594 13.351562 L 166.308594 42.652344 C 166.308594 43.160156 166.308594 43.65625 166.296875 44.15625 C 166.296875 44.609375 166.296875 45.027344 166.289062 45.457031 C 166.273438 46.328125 166.195312 47.195312 166.050781 48.050781 C 165.921875 48.867188 165.667969 49.65625 165.296875 50.390625 C 164.925781 51.109375 164.445312 51.761719 163.875 52.332031 C 163.300781 52.910156 162.640625 53.394531 161.914062 53.761719 C 161.179688 54.132812 160.390625 54.394531 159.578125 54.53125 C 158.714844 54.671875 157.839844 54.75 156.960938 54.761719 C 156.550781 54.769531 156.125 54.773438 155.707031 54.773438 L 154.1875 54.777344 Z M 11.824219 54.773438 "/>
<path style=" stroke:none;fill-rule:nonzero;fill:rgb(100%,100%,100%);fill-opacity:1;" d="M 34.675781 28.421875 C 34.707031 26.046875 35.953125 23.851562 37.976562 22.609375 C 36.691406 20.777344 34.621094 19.65625 32.386719 19.585938 C 30.035156 19.339844 27.757812 20.992188 26.558594 20.992188 C 25.339844 20.992188 23.496094 19.613281 21.507812 19.652344 C 18.894531 19.738281 16.515625 21.1875 15.246094 23.472656 C 12.539062 28.160156 14.558594 35.050781 17.152344 38.839844 C 18.449219 40.695312 19.964844 42.765625 21.949219 42.691406 C 23.890625 42.613281 24.617188 41.453125 26.960938 41.453125 C 29.285156 41.453125 29.964844 42.691406 31.988281 42.644531 C 34.074219 42.613281 35.386719 40.78125 36.636719 38.910156 C 37.570312 37.585938 38.289062 36.125 38.761719 34.578125 C 36.289062 33.53125 34.679688 31.109375 34.675781 28.421875 Z M 34.675781 28.421875 "/>
<path style=" stroke:none;fill-rule:nonzero;fill:rgb(100%,100%,100%);fill-opacity:1;" d="M 30.851562 17.09375 C 31.988281 15.730469 32.546875 13.976562 32.414062 12.207031 C 30.675781 12.390625 29.074219 13.21875 27.921875 14.53125 C 26.785156 15.824219 26.207031 17.519531 26.320312 19.238281 C 28.078125 19.257812 29.75 18.464844 30.851562 17.09375 Z M 30.851562 17.09375 "/>
<path style=" stroke:none;fill-rule:nonzero;fill:rgb(100%,100%,100%);fill-opacity:1;" d="M 59.222656 37.996094 L 52.597656 37.996094 L 51.003906 42.695312 L 48.199219 42.695312 L 54.476562 25.308594 L 57.390625 25.308594 L 63.667969 42.695312 L 60.8125 42.695312 Z M 53.28125 35.828125 L 58.535156 35.828125 L 55.945312 28.199219 L 55.875 28.199219 Z M 53.28125 35.828125 "/>
<path style=" stroke:none;fill-rule:nonzero;fill:rgb(100%,100%,100%);fill-opacity:1;" d="M 77.222656 36.359375 C 77.222656 40.296875 75.117188 42.828125 71.933594 42.828125 C 70.289062 42.914062 68.742188 42.050781 67.945312 40.609375 L 67.886719 40.609375 L 67.886719 46.886719 L 65.285156 46.886719 L 65.285156 30.019531 L 67.800781 30.019531 L 67.800781 32.128906 L 67.851562 32.128906 C 68.679688 30.695312 70.230469 29.832031 71.886719 29.886719 C 75.101562 29.886719 77.222656 32.429688 77.222656 36.359375 Z M 74.550781 36.359375 C 74.550781 33.792969 73.222656 32.105469 71.199219 32.105469 C 69.210938 32.105469 67.875 33.828125 67.875 36.359375 C 67.875 38.910156 69.210938 40.621094 71.199219 40.621094 C 73.222656 40.621094 74.550781 38.945312 74.550781 36.359375 Z M 74.550781 36.359375 "/>
<path style=" stroke:none;fill-rule:nonzero;fill:rgb(100%,100%,100%);fill-opacity:1;" d="M 91.175781 36.359375 C 91.175781 40.296875 89.066406 42.828125 85.882812 42.828125 C 84.238281 42.914062 82.691406 42.050781 81.898438 40.609375 L 81.835938 40.609375 L 81.835938 46.886719 L 79.234375 46.886719 L 79.234375 30.019531 L 81.753906 30.019531 L 81.753906 32.128906 L 81.800781 32.128906 C 82.628906 30.695312 84.179688 29.832031 85.835938 29.886719 C 89.054688 29.886719 91.175781 32.429688 91.175781 36.359375 Z M 88.5 36.359375 C 88.5 33.792969 87.175781 32.105469 85.152344 32.105469 C 83.164062 32.105469 81.824219 33.828125 81.824219 36.359375 C 81.824219 38.910156 83.164062 40.621094 85.152344 40.621094 C 87.175781 40.621094 88.5 38.945312 88.5 36.359375 Z M 88.5 36.359375 "/>
<path style=" stroke:none;fill-rule:nonzero;fill:rgb(100%,100%,100%);fill-opacity:1;" d="M 100.394531 37.851562 C 100.585938 39.574219 102.261719 40.707031 104.550781 40.707031 C 106.742188 40.707031 108.320312 39.574219 108.320312 38.019531 C 108.320312 36.671875 107.371094 35.863281 105.117188 35.308594 L 102.863281 34.765625 C 99.671875 33.996094 98.1875 32.503906 98.1875 30.078125 C 98.1875 27.078125 100.804688 25.019531 104.515625 25.019531 C 108.1875 25.019531 110.707031 27.078125 110.792969 30.078125 L 108.164062 30.078125 C 108.007812 28.34375 106.574219 27.296875 104.476562 27.296875 C 102.382812 27.296875 100.949219 28.355469 100.949219 29.898438 C 100.949219 31.128906 101.863281 31.851562 104.105469 32.40625 L 106.019531 32.875 C 109.585938 33.71875 111.070312 35.152344 111.070312 37.695312 C 111.070312 40.945312 108.480469 42.984375 104.359375 42.984375 C 100.503906 42.984375 97.898438 40.996094 97.730469 37.851562 Z M 100.394531 37.851562 "/>
<path style=" stroke:none;fill-rule:nonzero;fill:rgb(100%,100%,100%);fill-opacity:1;" d="M 116.683594 27.019531 L 116.683594 30.019531 L 119.09375 30.019531 L 119.09375 32.078125 L 116.683594 32.078125 L 116.683594 39.066406 C 116.683594 40.152344 117.167969 40.660156 118.226562 40.660156 C 118.511719 40.652344 118.796875 40.632812 119.082031 40.597656 L 119.082031 42.648438 C 118.605469 42.734375 118.121094 42.777344 117.636719 42.765625 C 115.070312 42.765625 114.070312 41.804688 114.070312 39.34375 L 114.070312 32.078125 L 112.226562 32.078125 L 112.226562 30.019531 L 114.070312 30.019531 L 114.070312 27.019531 Z M 116.683594 27.019531 "/>
<path style=" stroke:none;fill-rule:nonzero;fill:rgb(100%,100%,100%);fill-opacity:1;" d="M 120.492188 36.359375 C 120.492188 32.371094 122.839844 29.863281 126.503906 29.863281 C 130.175781 29.863281 132.515625 32.371094 132.515625 36.359375 C 132.515625 40.355469 130.191406 42.851562 126.503906 42.851562 C 122.816406 42.851562 120.492188 40.355469 120.492188 36.359375 Z M 129.863281 36.359375 C 129.863281 33.621094 128.609375 32.007812 126.503906 32.007812 C 124.394531 32.007812 123.140625 33.632812 123.140625 36.359375 C 123.140625 39.105469 124.394531 40.707031 126.503906 40.707031 C 128.609375 40.707031 129.863281 39.105469 129.863281 36.359375 Z M 129.863281 36.359375 "/>
<path style=" stroke:none;fill-rule:nonzero;fill:rgb(100%,100%,100%);fill-opacity:1;" d="M 134.660156 30.019531 L 137.140625 30.019531 L 137.140625 32.175781 L 137.203125 32.175781 C 137.546875 30.789062 138.820312 29.832031 140.25 29.886719 C 140.550781 29.886719 140.851562 29.917969 141.140625 29.984375 L 141.140625 32.417969 C 140.765625 32.300781 140.367188 32.25 139.972656 32.261719 C 139.207031 32.230469 138.46875 32.535156 137.945312 33.09375 C 137.425781 33.65625 137.175781 34.414062 137.261719 35.175781 L 137.261719 42.695312 L 134.660156 42.695312 Z M 134.660156 30.019531 "/>
<path style=" stroke:none;fill-rule:nonzero;fill:rgb(100%,100%,100%);fill-opacity:1;" d="M 153.136719 38.972656 C 152.789062 41.273438 150.546875 42.851562 147.679688 42.851562 C 143.992188 42.851562 141.703125 40.382812 141.703125 36.417969 C 141.703125 32.441406 144.003906 29.863281 147.570312 29.863281 C 151.078125 29.863281 153.28125 32.273438 153.28125 36.117188 L 153.28125 37.007812 L 144.332031 37.007812 L 144.332031 37.164062 C 144.246094 38.109375 144.574219 39.042969 145.226562 39.730469 C 145.878906 40.414062 146.792969 40.789062 147.742188 40.753906 C 149.003906 40.871094 150.191406 40.148438 150.667969 38.972656 Z M 144.34375 35.1875 L 150.679688 35.1875 C 150.726562 34.339844 150.417969 33.511719 149.828125 32.902344 C 149.238281 32.289062 148.417969 31.953125 147.570312 31.972656 C 146.714844 31.964844 145.894531 32.304688 145.285156 32.90625 C 144.679688 33.511719 144.339844 34.332031 144.34375 35.1875 Z M 144.34375 35.1875 "/>
<path style=" stroke:none;fill-rule:nonzero;fill:rgb(100%,100%,100%);fill-opacity:1;" d="M 52.957031 12.222656 C 54.0625 12.144531 55.144531 12.5625 55.90625 13.367188 C 56.664062 14.171875 57.027344 15.277344 56.886719 16.375 C 56.886719 19.042969 55.445312 20.578125 52.957031 20.578125 L 49.9375 20.578125 L 49.9375 12.222656 Z M 51.238281 19.394531 L 52.8125 19.394531 C 53.601562 19.441406 54.371094 19.132812 54.902344 18.550781 C 55.4375 17.964844 55.683594 17.171875 55.566406 16.390625 C 55.671875 15.613281 55.425781 14.824219 54.894531 14.246094 C 54.359375 13.667969 53.597656 13.359375 52.8125 13.402344 L 51.238281 13.402344 Z M 51.238281 19.394531 "/>
<path style=" stroke:none;fill-rule:nonzero;fill:rgb(100%,100%,100%);fill-opacity:1;" d="M 58.351562 17.421875 C 58.246094 16.292969 58.785156 15.199219 59.75 14.601562 C 60.714844 14 61.9375 14 62.902344 14.601562 C 63.863281 15.199219 64.40625 16.292969 64.300781 17.421875 C 64.410156 18.554688 63.867188 19.648438 62.902344 20.25 C 61.9375 20.847656 60.714844 20.847656 59.75 20.25 C 58.785156 19.648438 58.242188 18.554688 58.351562 17.421875 Z M 63.019531 17.421875 C 63.019531 16.054688 62.40625 15.257812 61.328125 15.257812 C 60.246094 15.257812 59.636719 16.054688 59.636719 17.421875 C 59.636719 18.800781 60.246094 19.59375 61.328125 19.59375 C 62.40625 19.59375 63.019531 18.792969 63.019531 17.421875 Z M 63.019531 17.421875 "/>
<path style=" stroke:none;fill-rule:nonzero;fill:rgb(100%,100%,100%);fill-opacity:1;" d="M 72.203125 20.578125 L 70.910156 20.578125 L 69.609375 15.933594 L 69.511719 15.933594 L 68.214844 20.578125 L 66.933594 20.578125 L 65.195312 14.273438 L 66.460938 14.273438 L 67.589844 19.082031 L 67.679688 19.082031 L 68.976562 14.273438 L 70.171875 14.273438 L 71.46875 19.082031 L 71.566406 19.082031 L 72.6875 14.273438 L 73.933594 14.273438 Z M 72.203125 20.578125 "/>
<path style=" stroke:none;fill-rule:nonzero;fill:rgb(100%,100%,100%);fill-opacity:1;" d="M 75.394531 14.273438 L 76.59375 14.273438 L 76.59375 15.273438 L 76.6875 15.273438 C 77.007812 14.535156 77.765625 14.085938 78.566406 14.152344 C 79.1875 14.105469 79.796875 14.34375 80.222656 14.800781 C 80.644531 15.253906 80.839844 15.878906 80.75 16.496094 L 80.75 20.578125 L 79.503906 20.578125 L 79.503906 16.808594 C 79.503906 15.796875 79.066406 15.292969 78.144531 15.292969 C 77.722656 15.273438 77.3125 15.4375 77.023438 15.746094 C 76.734375 16.050781 76.59375 16.46875 76.640625 16.890625 L 76.640625 20.578125 L 75.394531 20.578125 Z M 75.394531 14.273438 "/>
<path style=" stroke:none;fill-rule:nonzero;fill:rgb(100%,100%,100%);fill-opacity:1;" d="M 82.730469 11.8125 L 83.976562 11.8125 L 83.976562 20.578125 L 82.730469 20.578125 Z M 82.730469 11.8125 "/>
<path style=" stroke:none;fill-rule:nonzero;fill:rgb(100%,100%,100%);fill-opacity:1;" d="M 85.703125 17.421875 C 85.597656 16.292969 86.140625 15.199219 87.101562 14.601562 C 88.066406 14 89.289062 14 90.253906 14.601562 C 91.21875 15.199219 91.757812 16.292969 91.652344 17.421875 C 91.761719 18.554688 91.21875 19.648438 90.253906 20.25 C 89.289062 20.847656 88.066406 20.847656 87.101562 20.25 C 86.136719 19.648438 85.59375 18.554688 85.703125 17.421875 Z M 90.371094 17.421875 C 90.371094 16.054688 89.757812 15.257812 88.679688 15.257812 C 87.597656 15.257812 86.988281 16.054688 86.988281 17.421875 C 86.988281 18.800781 87.597656 19.59375 88.679688 19.59375 C 89.757812 19.59375 90.371094 18.792969 90.371094 17.421875 Z M 90.371094 17.421875 "/>
<path style=" stroke:none;fill-rule:nonzero;fill:rgb(100%,100%,100%);fill-opacity:1;" d="M 92.960938 18.792969 C 92.960938 17.660156 93.804688 17.003906 95.304688 16.914062 L 97.011719 16.8125 L 97.011719 16.269531 C 97.011719 15.605469 96.574219 15.226562 95.722656 15.226562 C 95.027344 15.226562 94.546875 15.484375 94.410156 15.929688 L 93.203125 15.929688 C 93.332031 14.84375 94.351562 14.152344 95.78125 14.152344 C 97.359375 14.152344 98.253906 14.9375 98.253906 16.269531 L 98.253906 20.578125 L 97.054688 20.578125 L 97.054688 19.691406 L 96.957031 19.691406 C 96.550781 20.339844 95.824219 20.714844 95.0625 20.679688 C 94.527344 20.738281 93.992188 20.5625 93.59375 20.203125 C 93.191406 19.84375 92.964844 19.332031 92.960938 18.792969 Z M 97.011719 18.253906 L 97.011719 17.726562 L 95.472656 17.828125 C 94.605469 17.886719 94.210938 18.179688 94.210938 18.734375 C 94.210938 19.304688 94.703125 19.632812 95.382812 19.632812 C 95.78125 19.675781 96.183594 19.550781 96.488281 19.289062 C 96.796875 19.03125 96.988281 18.65625 97.011719 18.253906 Z M 97.011719 18.253906 "/>
<path style=" stroke:none;fill-rule:nonzero;fill:rgb(100%,100%,100%);fill-opacity:1;" d="M 99.886719 17.421875 C 99.886719 15.429688 100.910156 14.167969 102.503906 14.167969 C 103.308594 14.132812 104.0625 14.5625 104.4375 15.273438 L 104.53125 15.273438 L 104.53125 11.8125 L 105.773438 11.8125 L 105.773438 20.578125 L 104.582031 20.578125 L 104.582031 19.582031 L 104.484375 19.582031 C 104.078125 20.285156 103.316406 20.710938 102.503906 20.679688 C 100.902344 20.679688 99.886719 19.417969 99.886719 17.421875 Z M 101.171875 17.421875 C 101.171875 18.757812 101.804688 19.5625 102.855469 19.5625 C 103.90625 19.5625 104.554688 18.746094 104.554688 17.425781 C 104.554688 16.113281 103.898438 15.285156 102.855469 15.285156 C 101.808594 15.285156 101.171875 16.097656 101.171875 17.421875 Z M 101.171875 17.421875 "/>
<path style=" stroke:none;fill-rule:nonzero;fill:rgb(100%,100%,100%);fill-opacity:1;" d="M 110.921875 17.421875 C 110.8125 16.292969 111.355469 15.199219 112.320312 14.601562 C 113.285156 14 114.503906 14 115.46875 14.601562 C 116.433594 15.199219 116.976562 16.292969 116.867188 17.421875 C 116.976562 18.554688 116.4375 19.648438 115.472656 20.25 C 114.507812 20.847656 113.285156 20.847656 112.320312 20.25 C 111.351562 19.648438 110.8125 18.554688 110.921875 17.421875 Z M 115.589844 17.421875 C 115.589844 16.054688 114.972656 15.257812 113.898438 15.257812 C 112.816406 15.257812 112.207031 16.054688 112.207031 17.421875 C 112.207031 18.800781 112.816406 19.59375 113.898438 19.59375 C 114.972656 19.59375 115.589844 18.792969 115.589844 17.421875 Z M 115.589844 17.421875 "/>
<path style=" stroke:none;fill-rule:nonzero;fill:rgb(100%,100%,100%);fill-opacity:1;" d="M 118.539062 14.273438 L 119.734375 14.273438 L 119.734375 15.273438 L 119.828125 15.273438 C 120.152344 14.535156 120.90625 14.085938 121.710938 14.152344 C 122.332031 14.105469 122.9375 14.34375 123.363281 14.800781 C 123.789062 15.253906 123.980469 15.878906 123.890625 16.496094 L 123.890625 20.578125 L 122.648438 20.578125 L 122.648438 16.808594 C 122.648438 15.796875 122.207031 15.292969 121.285156 15.292969 C 120.863281 15.273438 120.457031 15.4375 120.167969 15.746094 C 119.878906 16.050781 119.738281 16.46875 119.78125 16.890625 L 119.78125 20.578125 L 118.539062 20.578125 Z M 118.539062 14.273438 "/>
<path style=" stroke:none;fill-rule:nonzero;fill:rgb(100%,100%,100%);fill-opacity:1;" d="M 130.921875 12.703125 L 130.921875 14.300781 L 132.285156 14.300781 L 132.285156 15.347656 L 130.921875 15.347656 L 130.921875 18.589844 C 130.921875 19.25 131.191406 19.539062 131.8125 19.539062 C 131.972656 19.539062 132.128906 19.53125 132.285156 19.511719 L 132.285156 20.546875 C 132.0625 20.589844 131.835938 20.609375 131.609375 20.613281 C 130.226562 20.613281 129.675781 20.125 129.675781 18.910156 L 129.675781 15.347656 L 128.675781 15.347656 L 128.675781 14.300781 L 129.675781 14.300781 L 129.675781 12.703125 Z M 130.921875 12.703125 "/>
<path style=" stroke:none;fill-rule:nonzero;fill:rgb(100%,100%,100%);fill-opacity:1;" d="M 133.988281 11.8125 L 135.21875 11.8125 L 135.21875 15.285156 L 135.316406 15.285156 C 135.65625 14.542969 136.425781 14.089844 137.242188 14.15625 C 137.859375 14.121094 138.457031 14.367188 138.878906 14.820312 C 139.296875 15.277344 139.492188 15.894531 139.410156 16.507812 L 139.410156 20.578125 L 138.164062 20.578125 L 138.164062 16.8125 C 138.164062 15.808594 137.695312 15.296875 136.816406 15.296875 C 136.386719 15.261719 135.957031 15.417969 135.652344 15.726562 C 135.347656 16.035156 135.191406 16.460938 135.230469 16.894531 L 135.230469 20.578125 L 133.988281 20.578125 Z M 133.988281 11.8125 "/>
<path style=" stroke:none;fill-rule:nonzero;fill:rgb(100%,100%,100%);fill-opacity:1;" d="M 146.664062 18.875 C 146.316406 20.0625 145.167969 20.832031 143.933594 20.699219 C 143.09375 20.722656 142.285156 20.371094 141.726562 19.746094 C 141.164062 19.117188 140.90625 18.277344 141.023438 17.445312 C 140.910156 16.609375 141.167969 15.765625 141.722656 15.132812 C 142.28125 14.503906 143.085938 14.144531 143.929688 14.152344 C 145.683594 14.152344 146.742188 15.347656 146.742188 17.328125 L 146.742188 17.761719 L 142.289062 17.761719 L 142.289062 17.832031 C 142.25 18.300781 142.410156 18.761719 142.730469 19.105469 C 143.050781 19.449219 143.5 19.644531 143.96875 19.640625 C 144.578125 19.710938 145.167969 19.410156 145.46875 18.875 Z M 142.289062 16.84375 L 145.472656 16.84375 C 145.503906 16.414062 145.355469 15.992188 145.058594 15.683594 C 144.765625 15.371094 144.351562 15.199219 143.921875 15.210938 C 143.488281 15.203125 143.070312 15.375 142.761719 15.683594 C 142.453125 15.988281 142.285156 16.410156 142.289062 16.84375 Z M 142.289062 16.84375 "/>
</g>
</svg>
